# xmcd CD database file
#
# Track frame offsets:
#	150
#	26623
#	53320
#	86882
#	108589
#	140381
#	141888
#	164613
#	188050
#	214970
#	241804
#	262463
#
# Disc length: 3778 seconds
#
# Revision: 0
# Processed by: cddbd v1.5.1PL0 Copyright (c) Steve Scherf et al.
# Submitted via: CDex 1.51
#
DISCID=b10ec00c
DTITLE=Couch-Ensemble  - Winnetou
DYEAR=2003
DGENRE=Jazz
TTITLE0=Perpetuum
TTITLE1=Boogalule
TTITLE2=What comes out of a dog #
TTITLE3=Prima vista sofa pub
TTITLE4=Stingl and Wadl
TTITLE5=Winnetou
TTITLE6=Funky donkey
TTITLE7=Sweet lake city blues
TTITLE8=Tunnel
TTITLE9=A new job
TTITLE10=Jugendträume
TTITLE11=One for Brahms #
EXTD=YEAR: 2003
EXTT0=
EXTT1=
EXTT2=
EXTT3=
EXTT4=
EXTT5=
EXTT6=
EXTT7=
EXTT8=
EXTT9=
EXTT10=
EXTT11=
PLAYORDER=
